<svg xmlns="http://www.w3.org/2000/svg" xmlns:xlink="http://www.w3.org/1999/xlink" width="844" height="768" viewBox="0 0 844 768">
  <defs>
    <clipPath id="clip-path">
      <rect id="Retângulo_15" data-name="Retângulo 15" width="26.13" height="38.038" transform="translate(0 10.159) rotate(-22.88)" fill="none"/>
    </clipPath>
    <clipPath id="clip-path-2">
      <path id="Caminho_30" data-name="Caminho 30" d="M963.631,173.142C950.772,177.9,941.6,195.609,946.3,208.323s17.9,21.309,30.758,16.554,24.729-21.272,20.024-33.985c-3.874-10.478-15.351-18.972-26.468-18.972a20.078,20.078,0,0,0-6.986,1.222" transform="translate(-945.054 -171.919)" fill="none"/>
    </clipPath>
    <clipPath id="clip-path-3">
      <path id="Caminho_44" data-name="Caminho 44" d="M1372.685,433.711,1363.128,443a.694.694,0,0,0-.208.483.679.679,0,0,0,.193.487l2.084,2.143a.583.583,0,0,0,.825,0l9.613-9.338a.605.605,0,0,0,0-.858l-2.132-2.2a.583.583,0,0,0-.423-.178.569.569,0,0,0-.4.163" transform="translate(-1362.92 -433.54)" fill="none"/>
    </clipPath>
    <clipPath id="clip-art">
      <rect width="844" height="768"/>
    </clipPath>
  </defs>
  <g id="art" clip-path="url(#clip-art)">
    <rect id="Retângulo_1" data-name="Retângulo 1" width="743" height="557" transform="translate(64 132)" fill="none"/>
    <path id="Caminho_2" data-name="Caminho 2" d="M1022.989,1202.956s-18.1-7.766.546-24.384,81.342-43.371,99.8-31.712c18.857,11.915-72.6,58.979-100.344,56.085" transform="translate(-573.943 -586.494)" fill="#ffe9eb" fill-rule="evenodd"/>
    <path id="Caminho_50" data-name="Caminho 50" d="M1044.2,1175.056s2.284,8.357-.691,7.295-9.457-7.024-9.457-7.024-7.124-8.142-10.872-1.115-3.306,15.637-8.361,20.837-16.124,13.88-15.8,21.052,19,9.8,30.947,4.643,1.746-9.055,12.814-12.168,11.514-5.293,10.463-10.222-5.876-29.224-9.048-23.3" transform="translate(-563.832 -603.685)" fill="#ffc75f" fill-rule="evenodd"/>
    <path id="Caminho_52" data-name="Caminho 52" d="M1084.82,1222.533s1.263,5,6.229,3.343,8.885-13.605,8.885-13.605-1.6,14.486-7.369,16.93c-4.557,1.946-7.54-4.673-7.744-6.686" transform="translate(-617.763 -629.403)" fill="#ffe9eb" fill-rule="evenodd"/>
    <path id="Caminho_54" data-name="Caminho 54" d="M1017.568,1264.246a38.591,38.591,0,0,1-5.649-.431c-3.677-.542-6.184-1.746-7.451-3.569a4.368,4.368,0,0,1-.81-3.15v-.067l.022-.052c1.582-3.12,5.442-7.057,9.011-10.467a.4.4,0,0,1,.565,0,.394.394,0,0,1,0,.561c-3.5,3.343-7.287,7.2-8.829,10.211a3.573,3.573,0,0,0,.7,2.518c1.114,1.6,3.514,2.715,6.9,3.217a32.6,32.6,0,0,0,15.351-1.114c.572-.163,1.114-.312,1.586-.435a.4.4,0,0,1,.193.773c-.483.119-1,.267-1.564.427a33.8,33.8,0,0,1-10.028,1.564" transform="translate(-566.724 -650.852)" fill="#032d4a"/>
    <path id="Caminho_3" data-name="Caminho 3" d="M852.11,236c65.226,0,118.184,52.371,118.184,116.847S917.337,469.694,852.11,469.694,733.93,417.323,733.93,352.847,786.888,236,852.11,236" transform="translate(-397.203 -15.745)" fill="#ffe9eb" fill-rule="evenodd"/>
    <path id="Caminho_4" data-name="Caminho 4" d="M574.735,880.822c-4.179,0-8.346,0-12.565-.063v-.646c4.2.041,8.4.063,12.558.063C792.7,880.175,954.6,823.927,1056.1,712.9l.475.435C954.96,824.495,792.866,880.822,574.735,880.822" transform="translate(-289.239 -315.512)" fill="#032d4a"/>
    <path id="Caminho_5" data-name="Caminho 5" d="M463.959,1161.467q-2.425-.082-4.829-.175l.026-.643,4.81.171Z" transform="translate(-224.471 -596.957)" fill="#032d4a"/>
    <path id="Caminho_6" data-name="Caminho 6" d="M241.507,1146.96c-28.6-1.664-54.02-3.874-77.257-6.013l.059-.646c23.214,2.143,48.657,4.353,77.219,6.013Z" transform="translate(-39.117 -584.165)" fill="#032d4a"/>
    <rect id="Retângulo_3" data-name="Retângulo 3" width="40.289" height="56.063" transform="translate(161.054 402.824) rotate(-13.14)" fill="#ffe9eb"/>
    <rect id="Retângulo_4" data-name="Retângulo 4" width="45.425" height="54.496" transform="translate(569.736 416.788) rotate(-13.48)" fill="#ffe9eb"/>
    <path id="Caminho_10" data-name="Caminho 10" d="M475.377,430.8a.4.4,0,0,1-.483-.3L440.128,281.592a27.393,27.393,0,0,0-32.9-20.428L317.7,282.045a.409.409,0,0,1-.487-.3.4.4,0,0,1,.3-.483l89.532-20.9a28.2,28.2,0,0,1,33.867,21.049l34.762,148.908a.4.4,0,0,1-.3.487" transform="translate(-135.259 -30.591)" fill="#032d4a"/>
    <path id="Caminho_11" data-name="Caminho 11" d="M752.278,762.246a.409.409,0,0,1-.487-.3l-.464-1.991a.4.4,0,0,1,.787-.186l.464,1.991a.4.4,0,0,1-.3.487" transform="translate(-408.134 -344.787)" fill="#032d4a"/>
    <path id="Caminho_12" data-name="Caminho 12" d="M426.57,577.6l-89.514,20.9a28.2,28.2,0,0,1-33.867-21.045L260.13,393.093a28.229,28.229,0,0,1-.613-9.074.408.408,0,1,1,.813.071,27.237,27.237,0,0,0,.594,8.81l43.033,184.368A27.385,27.385,0,0,0,336.852,597.7l89.536-20.885a27.393,27.393,0,0,0,20.428-32.9.4.4,0,1,1,.787-.182A28.2,28.2,0,0,1,426.555,577.6" transform="translate(-98.921 -108.552)" fill="#032d4a"/>
    <path id="Caminho_13" data-name="Caminho 13" d="M271.16,348.555a.4.4,0,0,1-.435-.609c.442-.709.917-1.408,1.419-2.073a.4.4,0,1,1,.646.487c-.487.646-.951,1.322-1.378,2.013a.412.412,0,0,1-.253.182" transform="translate(-106.006 -84.699)" fill="#032d4a"/>
    <path id="Caminho_14" data-name="Caminho 14" d="M381.636,369.365C386.38,353.72,402.3,350,411.874,355.035s12.792,18.824,8.049,34.472c-3.157,11.644-15.076,25.331-25.409,35.014-13.553-4.108-30.3-11.1-38.287-20.142-11.18-11.93-14.4-25.718-8.045-34.472s22.286-12.472,33.454-.542" transform="translate(-152.705 -89.247)" fill="#ff6f91" fill-rule="evenodd"/>
    <path id="Caminho_15" data-name="Caminho 15" d="M417.325,416.962a.437.437,0,0,1-.208,0c-8.446-2.559-29.1-9.657-38.472-20.261-11.276-12.03-14.523-26.089-8.071-34.977a21.349,21.349,0,0,1,15.73-8.231,22.865,22.865,0,0,1,17.873,7.157,22.9,22.9,0,0,1,12.859-14.333,21.37,21.37,0,0,1,17.747.416.4.4,0,0,1-.371.717,20.438,20.438,0,0,0-17.06-.371,22.161,22.161,0,0,0-12.6,14.486.423.423,0,0,1-.683.16,22.208,22.208,0,0,0-17.706-7.4,20.475,20.475,0,0,0-15.128,7.9c-6.218,8.543-2.994,22.211,8.015,33.956,9.159,10.366,29.369,17.372,37.885,19.964,6.485-6.1,21.506-21.324,25.123-34.661a52.144,52.144,0,0,0,1.508-6.34.405.405,0,0,1,.8.137,52.909,52.909,0,0,1-1.53,6.426c-3.714,13.646-19.08,29.153-25.517,35.189a.479.479,0,0,1-.186.1" transform="translate(-166.743 -84.005)" fill="#032d4a"/>
    <path id="Caminho_16" data-name="Caminho 16" d="M571.635,381.108a.4.4,0,0,1-.483-.286c-.167-.609-.371-1.211-.557-1.79a.4.4,0,0,1,.743-.267q.318.9.576,1.857a.4.4,0,0,1-.282.494h0" transform="translate(-294.533 -105.366)" fill="#032d4a"/>
    <rect id="Retângulo_5" data-name="Retângulo 5" width="80.425" height="16.105" transform="translate(215.235 377.427) rotate(-13.14)" fill="#ffe9eb"/>
    <rect id="Retângulo_6" data-name="Retângulo 6" width="81.079" height="4.071" transform="translate(221.557 403.549) rotate(-13.14)" fill="#ffe9eb"/>
    <rect id="Retângulo_7" data-name="Retângulo 7" width="56.728" height="4.071" transform="translate(223.684 412.039) rotate(-13.14)" fill="#ffe9eb"/>
    <rect id="Retângulo_8" data-name="Retângulo 8" width="55.896" height="4.071" transform="translate(225.838 420.595) rotate(-13.14)" fill="#ffe9eb"/>
    <rect id="Retângulo_9" data-name="Retângulo 9" width="38.279" height="4.071" transform="translate(228.517 429.267) rotate(-13.14)" fill="#ffe9eb"/>
    <path id="Caminho_17" data-name="Caminho 17" d="M432.718,573.614a.969.969,0,0,1-.917-.267l-9.416-9.657-2.2,9.5a.969.969,0,0,1-1.6.494l-12.6-11.611-2.8,7.273a.969.969,0,0,1-.672.591L392.5,572.426h0a.971.971,0,0,1-.457-1.887l9.516-2.362,3.139-8.134a.965.965,0,0,1,.683-.594h0a.965.965,0,0,1,.88.23l12.413,11.466,2.229-9.605a.969.969,0,0,1,1.638-.461l9.252,9.475,2.511-19.819a.973.973,0,0,1,.743-.817.962.962,0,0,1,1.025.371l7.035,9.85,2.57-6.73a.969.969,0,0,1,1.694-.223l7.209,9.973c2.184-3.384,4.921-7.644,5.226-8.171a.955.955,0,0,1,.4-.431.984.984,0,0,1,.312-.111c.449-.1,6.043-1.408,9.75-2.277h0a.971.971,0,0,1,.442,1.891l-8.275,1.935-1.114.26H461.3l-.045.078c-.167.26-.4.635-.687,1.085-.568.888-1.326,2.073-2.087,3.254-1.519,2.362-3.042,4.721-3.042,4.721a.966.966,0,0,1-1.6.041l-6.987-9.657-2.574,6.745a.981.981,0,0,1-.784.617.969.969,0,0,1-.914-.4l-6.645-9.286L433.48,572.8a.969.969,0,0,1-.654.8l-.085.022" transform="translate(-181.835 -213.046)" fill="#ffe9eb"/>
    <path id="Caminho_18" data-name="Caminho 18" d="M479.328,847.121a8.064,8.064,0,1,1-6.181,9.724,8.149,8.149,0,0,1,6.18-9.724" transform="translate(-233.159 -399.769)" fill="#ffc75f" fill-rule="evenodd"/>
    <path id="Caminho_19" data-name="Caminho 19" d="M547.852,831.122a8.064,8.064,0,1,1-6.184,9.724,8.149,8.149,0,0,1,6.181-9.724" transform="translate(-276.229 -389.713)" fill="#ffc75f" fill-rule="evenodd"/>
    <path id="Caminho_20" data-name="Caminho 20" d="M616.4,815.119a8.067,8.067,0,1,1-6.181,9.724,8.171,8.171,0,0,1,6.181-9.724" transform="translate(-319.318 -379.653)" fill="#ffc75f" fill-rule="evenodd"/>
    <path id="Caminho_21" data-name="Caminho 21" d="M545.649,827.416a8.543,8.543,0,1,1,5.361-3.76,8.472,8.472,0,0,1-5.361,3.76m-3.666-15.708a7.663,7.663,0,1,0,9.364,5.683,7.752,7.752,0,0,0-9.364-5.683M520.2,833.359a8.472,8.472,0,1,1,6.481-10.211,8.565,8.565,0,0,1-6.481,10.211m-3.666-15.708a7.663,7.663,0,1,0,9.36,5.683,7.752,7.752,0,0,0-9.36-5.683M494.745,839.3a8.472,8.472,0,1,1,6.481-10.211,8.565,8.565,0,0,1-6.481,10.211m-3.666-15.708a7.663,7.663,0,1,0,9.36,5.679,7.755,7.755,0,0,0-9.36-5.679" transform="translate(-240.419 -376.959)" fill="#032d4a"/>
    <rect id="Retângulo_10" data-name="Retângulo 10" width="26.416" height="5.423" transform="translate(166.3 230.497) rotate(-13.14)" fill="#845ec2"/>
    <rect id="Retângulo_11" data-name="Retângulo 11" width="26.416" height="5.423" transform="translate(197.057 223.318) rotate(-13.14)" fill="#ffc75f"/>
    <path id="Caminho_22" data-name="Caminho 22" d="M488.347,970.966a.966.966,0,0,1-.825-.461l-31.72-51.7-20.239,40.608a.988.988,0,0,1-.8.535.97.97,0,0,1-.865-.42L391.58,898.114l-20.644,29.922a.966.966,0,0,1-.784.42l-42.6.583h0a.969.969,0,1,1,0-1.939l42.1-.579,21.171-30.665a.969.969,0,0,1,.8-.42h0a.97.97,0,0,1,.8.42l42.135,61.207,20.291-40.7a.973.973,0,0,1,1.7-.074l31.6,51.506,30.921-82.152a.973.973,0,0,1,.891-.628h0a.969.969,0,0,1,.9.6l21.22,50.785,19.845-28.971a.973.973,0,0,1,1.694.167l21.361,50.317c12.7-12.1,30.88-29.48,32.121-30.828a.988.988,0,0,1,.643-.416.926.926,0,0,1,.267,0c1.382.041,27.675,0,41.522,0h0a.973.973,0,0,1,0,1.943l-20.8.022h-20.4c-.267.286-.635.646-1.137,1.14-.906.884-2.2,2.143-3.763,3.647-3.116,3-7.28,6.994-11.447,10.979-8.331,7.967-16.673,15.916-16.673,15.916a.977.977,0,0,1-1.564-.323l-21.2-50.009-19.849,28.971a.973.973,0,0,1-1.7-.174l-20.967-50.165-30.758,81.714a.962.962,0,0,1-.817.624h-.093" transform="translate(-141.153 -423.696)" fill="#ffe9eb"/>
    <path id="Caminho_23" data-name="Caminho 23" d="M1297.831,370.1s12.023,11.28,25.881,24.8l-.784,10.456,2.578,21.636s3.811-1.211,3.763-6.883a33.648,33.648,0,0,1,.955-9.033s14.734,18.571,18.943,16.016l-10.1-14.89s12.187,11.165,15.024,7.934L1341.752,407.4s13.661,3.517,13.962.787l-15.229-7.429,4.015-2.273s4.829,2.318,5.887.635L1345.9,395.3l-7.859.535-5.312-7.079s-21.368-35.408-29.8-38.231-17.008,10.7-5.107,19.574" transform="translate(-747.972 -87.495)" fill="#fe8fb0" fill-rule="evenodd"/>
    <rect id="Retângulo_14" data-name="Retângulo 14" width="26.13" height="38.038" transform="translate(438.041 232.759) rotate(-22.88)" fill="#fe8fb0"/>
    <g id="Grupo_1" data-name="Grupo 1" transform="translate(438.044 222.598)" clip-path="url(#clip-path)">
      <path id="Caminho_24" data-name="Caminho 24" d="M1011.907,279.764l24.243-24.644s1.66,5.371-3.1,14.426-11.589,13.271-16.324,14.924-4.829-4.706-4.829-4.706" transform="translate(-1009.972 -250.362)" fill="#eb6b9b" fill-rule="evenodd"/>
    </g>
    <path id="Caminho_25" data-name="Caminho 25" d="M963.63,173.14c12.862-4.758,28.752,5.037,33.454,17.75s-7.165,29.228-20.024,33.985S951,221.031,946.3,208.321,950.76,177.9,963.63,173.14" transform="translate(-529.909 24.536)" fill="#fe8fb0" fill-rule="evenodd"/>
    <g id="Grupo_2" data-name="Grupo 2" transform="translate(415.144 196.453)" clip-path="url(#clip-path-2)">
      <path id="Caminho_26" data-name="Caminho 26" d="M958.9,271.451a3.607,3.607,0,1,1,.368,7.194,3.607,3.607,0,1,1-.371-7.194" transform="translate(-951.492 -234.476)" fill="#f578a7" fill-rule="evenodd"/>
      <path id="Caminho_27" data-name="Caminho 27" d="M1040.354,246.515a3.781,3.781,0,1,1-3.621,3.971,3.781,3.781,0,0,1,3.621-3.971" transform="translate(-1002.678 -218.806)" fill="#f578a7" fill-rule="evenodd"/>
      <path id="Caminho_28" data-name="Caminho 28" d="M967.021,251.618a2.466,2.466,0,1,1-2.385,2.6,2.492,2.492,0,0,1,2.384-2.6" transform="translate(-957.361 -222.015)" fill="#032d4a" fill-rule="evenodd"/>
      <path id="Caminho_29" data-name="Caminho 29" d="M1021.966,235a2.485,2.485,0,1,1-1.731.8,2.466,2.466,0,0,1,1.731-.8" transform="translate(-991.901 -211.568)" fill="#032d4a" fill-rule="evenodd"/>
    </g>
    <path id="Caminho_31" data-name="Caminho 31" d="M949.21,243.977s8.435-4.635,9.26-2.021-5.077,2.674-9.26,2.021" transform="translate(-532.522 -18.987)" fill="#032d4a" fill-rule="evenodd"/>
    <path id="Caminho_32" data-name="Caminho 32" d="M1023.7,216.15s-12.435,2.2-11.388,5.07,7.4-1.423,11.388-5.07" transform="translate(-572.149 -3.268)" fill="#032d4a" fill-rule="evenodd"/>
    <path id="Caminho_33" data-name="Caminho 33" d="M993.553,261.908a3.053,3.053,0,0,1-2.838-1.3c-.672-1.293-.123-2.191.795-3.681.171-.279.371-.587.557-.925,1.114-1.905.539-3.027.512-3.075a.323.323,0,0,1,.123-.438.32.32,0,0,1,.438.123c.033.056.81,1.467-.513,3.714-.2.345-.394.654-.568.94-.877,1.423-1.278,2.076-.773,3.042.591,1.133,2.8,1.047,3.614.743a.325.325,0,1,1,.215.613,5.115,5.115,0,0,1-1.564.227" transform="translate(-558.424 -26.083)" fill="#032d4a"/>
    <path id="Caminho_34" data-name="Caminho 34" d="M905.444,318.166s-46.309,1.163-82.011,60.817,6.686,61.932,19.169,36.816a280.5,280.5,0,0,1,24.414-40.266c.056-.5,13.862,22.6,26.338,46.566s14.059,32.069,14.059,32.069,41.57-34.465,63.952-22.59c0,0-10.006-72.187-7.96-82.78,0,0,39.282,10.976,43.576-11.975s-67.529-26.509-101.537-18.649" transform="translate(-444.665 -65.021)" fill="#ffc75f" fill-rule="evenodd"/>
    <path id="Caminho_35" data-name="Caminho 35" d="M951.721,381.145a.267.267,0,0,1-.223-.119c-.115-.175-11.681-17.706-4.8-37.648a.264.264,0,0,1,.334-.167.267.267,0,0,1,.167.338c-6.793,19.686,4.628,37.009,4.743,37.183a.267.267,0,0,1-.219.412m94.509-26.1h-.071c-24.685-6.953-22.947-31.389-22.924-31.634a.271.271,0,0,1,.286-.245.267.267,0,0,1,.241.29c-.019.241-1.72,24.247,22.542,31.077a.264.264,0,0,1-.074.52" transform="translate(-529.57 -70.537)" fill="#fff"/>
    <path id="Caminho_36" data-name="Caminho 36" d="M1085.5,407.207s.442,5.694,5.984,4.829S1103.3,398.82,1103.3,398.82s-4.286,15.514-10.816,17.13c-5.167,1.281-7.131-6.507-6.99-8.736" transform="translate(-618.185 -118.09)" fill="#fff" fill-rule="evenodd"/>
    <path id="Caminho_37" data-name="Caminho 37" d="M1074.626,653.923a.528.528,0,0,1-.409-.189.535.535,0,0,1,.067-.743,176.27,176.27,0,0,1,23.136-15.882c17.3-9.824,30.851-12.844,40.277-8.977a.535.535,0,0,1,.286.695.527.527,0,0,1-.691.286c-21.788-8.944-61.924,24.354-62.329,24.692a.528.528,0,0,1-.338.123" transform="translate(-611.024 -261.204)" fill="#feb623"/>
    <path id="Caminho_38" data-name="Caminho 38" d="M826.365,319.123l.531,33.926s-27.9,57.63-10.2,64.5c14.415,5.6,18.43-18.943,18.794-29.892s1.608-33.621,1.608-33.621l7.748-5.895,4.015-26.2s-4.487-2.054-6.444,10.162c0,0-2.529-.108-2.1-6.927s1.3-21.153-2.659-22.854l-.862,7.38s-.661-8.725-4.554-9.07l-.3,4.06a3.447,3.447,0,0,0-2.47-.888l.371,18.029a2.763,2.763,0,0,0-3.469-2.708" transform="translate(-445.531 -56.37)" fill="#fe8fb0" fill-rule="evenodd"/>
    <path id="Caminho_39" data-name="Caminho 39" d="M1077.886,402.933a.267.267,0,0,1-.223-.119l-9.468-14.289a.264.264,0,0,1,.442-.29l9.468,14.285a.267.267,0,0,1-.219.412m-23.028-.427a.267.267,0,0,1-.264-.23c-.1-.773-2.437-18.943-2.6-21.39-.16-2.333.438-9.286.535-10.337L1041.215,359.7a.264.264,0,0,1,0-.371.267.267,0,0,1,.371,0l11.406,10.931a.263.263,0,0,1,.082.215c0,.082-.709,7.948-.542,10.4s2.578,21.171,2.6,21.357a.264.264,0,0,1-.23.293h-.033m28.043-6.374a.245.245,0,0,1-.193-.085L1071.2,383.686a.264.264,0,1,1,.371-.371L1083.09,395.7a.264.264,0,0,1,0,.371.252.252,0,0,1-.178.071m1.46-12a.266.266,0,0,1-.119-.03l-14.486-7.2a.265.265,0,1,1,.234-.475l14.486,7.2a.267.267,0,0,1-.119.505M868.049,357.1a.248.248,0,0,1-.115-.026.264.264,0,0,1-.126-.353c2.971-6.158.193-12.732.163-12.8a.265.265,0,1,1,.487-.212c.03.071,2.89,6.86-.171,13.241a.268.268,0,0,1-.238.149m170.187-.371a.26.26,0,0,1-.186-.078c-1.426-1.423-3.606-3.577-3.826-3.759a.264.264,0,0,1,.238-.472,53.456,53.456,0,0,1,3.959,3.855.264.264,0,0,1-.186.453M861.809,339.509a.267.267,0,0,1-.267-.256L861.2,328.6a.271.271,0,0,1,.256-.275.256.256,0,0,1,.275.256l.342,10.656a.268.268,0,0,1-.256.275Zm4.13-5.9a.267.267,0,0,1-.264-.245c0-.078-.576-7.841-.743-14.14-.156-6.043-1.486-7.12-1.486-7.131a.264.264,0,0,1-.056-.371.256.256,0,0,1,.371-.067c.16.108,1.556,1.237,1.72,7.555s.743,14.032.743,14.114a.267.267,0,0,1-.245.286h-.022m3.205-1.3a.264.264,0,0,1-.264-.253l-.717-15.5a.264.264,0,0,1,.253-.279.253.253,0,0,1,.275.253l.691,15.5a.26.26,0,0,1-.253.275h0" transform="translate(-477.202 -63.265)" fill="#032d4a"/>
    <path id="Caminho_40" data-name="Caminho 40" d="M1375.626,436.827a.606.606,0,0,0,0-.858l-2.132-2.2a.587.587,0,0,0-.828,0c-1.664,1.616-7.778,7.551-9.557,9.286a.679.679,0,0,0,0,.966l2.084,2.143a.583.583,0,0,0,.825,0l9.613-9.338" transform="translate(-792.562 -139.951)" fill="#032d4a" fill-rule="evenodd"/>
    <g id="Grupo_3" data-name="Grupo 3" transform="translate(570.35 293.626)" clip-path="url(#clip-path-3)">
      <path id="Caminho_41" data-name="Caminho 41" d="M1379.894,441.805a.553.553,0,0,0,0-.787l-1.486-1.53a.557.557,0,0,0-.784,0l-4.331,4.26a.557.557,0,0,0,0,.787l1.486,1.53a.557.557,0,0,0,.788,0l4.327-4.26" transform="translate(-1369.338 -437.177)" fill="#014e6a" fill-rule="evenodd"/>
      <path id="Caminho_42" data-name="Caminho 42" d="M1374.912,446.128a.679.679,0,0,1-.49-.2l-1.508-1.53a.694.694,0,0,1,0-.973l4.331-4.26a.7.7,0,0,1,.977,0l1.486,1.53a.668.668,0,0,1,.2.49.68.68,0,0,1-.2.483l-4.331,4.26a.676.676,0,0,1-.483.2m2.823-6.9a.415.415,0,0,0-.293.123l-4.335,4.26a.427.427,0,0,0,0,.6l1.508,1.53a.423.423,0,0,0,.6,0l4.331-4.26a.42.42,0,0,0,0-.6l-1.486-1.53a.438.438,0,0,0-.3-.126" transform="translate(-1369.076 -436.947)" fill="#fff"/>
      <path id="Caminho_43" data-name="Caminho 43" d="M1382.771,444.9a.583.583,0,0,1,.743.49c.022.286-.245.546-.661.654a.884.884,0,0,1-1.226-1.244c.111-.416.371-.68.665-.654a.587.587,0,0,1,.479.743" transform="translate(-1374.569 -440.206)" fill="#f578a7" fill-rule="evenodd"/>
    </g>
    <path id="Caminho_45" data-name="Caminho 45" d="M1066.39,1150.631l4.231,16.915,15.4,4.42,2.611-3.766-6.025-22.579Z" transform="translate(-606.305 -588.107)" fill="#fe8fb0" fill-rule="evenodd"/>
    <path id="Caminho_47" data-name="Caminho 47" d="M1111.81,795.3l38.394,42.187a56.052,56.052,0,0,0,26.431,16.28l43.743,12.183a6.381,6.381,0,0,0,7.948-4.765c1.062-4.784,2.474-11.143,3.406-15.321a5.549,5.549,0,0,0-3.146-6.273l-41.369-18.553a14.2,14.2,0,0,1-7.139-7.128c-6.3-14-23.864-53.025-23.864-53.025Z" transform="translate(-634.729 -345.671)" fill="#845ec2" fill-rule="evenodd"/>
    <path id="Caminho_48" data-name="Caminho 48" d="M1083.716,645.829a19.2,19.2,0,0,0-17.658-6.336c-16.254,2.8-49.9,14.114-83.838,59.135a36.674,36.674,0,0,0-7.161,26.249c1.857,16.176,8.625,47.238,29.38,105.648a5.367,5.367,0,0,0,5.6,3.543l12.536-1.3a6.337,6.337,0,0,0,5.672-6.79c-1.2-15.563-4.3-56.219-5-70.1-.951-19.013,3.157-31.449,18.393-40.359,16.77-9.824,70.7-37.009,42.071-69.694" transform="translate(-548.622 -269.204)" fill="#845ec2" fill-rule="evenodd"/>
    <path id="Caminho_49" data-name="Caminho 49" d="M1111.88,836.751a.268.268,0,0,1-.245-.371,33.969,33.969,0,0,1,9.772-11.733.267.267,0,1,1,.327.42,33.75,33.75,0,0,0-9.612,11.514.264.264,0,0,1-.241.16m14.515-15.436a.267.267,0,0,1-.16-.479l3.142-2.318a.267.267,0,0,1,.316.427l-3.142,2.318a.279.279,0,0,1-.156.052m7.365-5.337a.267.267,0,0,1-.145-.49l5.464-3.551,7.139-4.628c.52-.338,5.423-3.306,5.631-3.432a.265.265,0,1,1,.275.453c-.052.034-5.1,3.09-5.62,3.421l-7.139,4.632-5.46,3.551a.264.264,0,0,1-.145.044" transform="translate(-634.605 -372.667)" fill="#fff"/>
    <path id="Caminho_55" data-name="Caminho 55" d="M1043.526,1228.824a.409.409,0,0,1-.256-.093.4.4,0,0,1-.048-.561,13.228,13.228,0,0,0,1.263-1.824.4.4,0,1,1,.691.4,14.294,14.294,0,0,1-1.352,1.924.4.4,0,0,1-.3.141" transform="translate(-591.557 -638.105)" fill="#032d4a"/>
    <path id="Caminho_56" data-name="Caminho 56" d="M1051.776,1192.834a.5.5,0,0,1-.13,0,.4.4,0,0,1-.245-.509,46.234,46.234,0,0,0,1.623-6.314,24.332,24.332,0,0,1,2.949-7.7.4.4,0,1,1,.672.427,23.911,23.911,0,0,0-2.841,7.428,46.619,46.619,0,0,1-1.653,6.415.394.394,0,0,1-.371.267" transform="translate(-596.743 -607.939)" fill="#032d4a"/>
    <path id="Caminho_59" data-name="Caminho 59" d="M947.2,146.857c.494-.219,5.813-2.919,11.819,1.813s7.51,6.285,14.051,1.244,5.627-19.27-2.5-21.279-14.252,8.171-23.964,2.009-23.162-17.691-33.688-3.057.271,32.314,14.01,31.419,12.539-8.706,20.272-12.149" transform="translate(-507.053 56.866)" fill="#014e6a" fill-rule="evenodd"/>
    <path id="Caminho_60" data-name="Caminho 60" d="M1080.927,207.569c2.537.056,4.542,2.749,4.457,6.013s-2.191,5.869-4.732,5.813-4.542-2.749-4.457-6.013,2.191-5.869,4.732-5.813" transform="translate(-612.341 2.126)" fill="#fe8fb0" fill-rule="evenodd"/>
    <path id="Caminho_61" data-name="Caminho 61" d="M933.275,145.774l.048.007.045.015.041.019.041.022.037.026.037.033.03.033.026.041.022.041.019.041.011.048.007.045v.093l-.011.048-.011.045-.019.041-.056.108-.052.108-.052.1-.052.108-.048.108-.052.1-.048.1-.052.108-.048.1-.048.1-.048.1-.044.1-.048.1-.045.1-.044.1-.045.1-.045.1-.044.1-.041.1-.041.1-.045.1-.041.1-.041.1-.037.1-.041.1-.037.1-.037.1-.037.1-.037.1-.037.1-.033.1-.037.1-.033.1-.033.1-.033.1-.03.1-.033.1-.03.1-.03.1-.03.1-.03.1-.03.1-.026.1-.026.1-.03.1-.026.1-.022.1-.026.1-.022.1-.022.1-.022.1-.022.1-.022.1-.018.1-.022.1-.019.1-.019.1-.018.1-.015.1-.015.1-.019.1-.015.1-.015.1-.011.1-.015.1-.011.1-.011.1-.011.1-.011.1-.007.1-.011.1-.007.1-.007.1-.007.1,0,.1-.007.1,0,.1,0,.1,0,.1v.1l0,.1v.316l0,.1v.108l0,.1,0,.108,0,.108,0,.1.007.108.007.108,0,.108.011.111.007.108.011.111.011.108.011.111.011.108.011.111.015.111.015.115.015.111.015.111.019.115.015.111.019.115.019.115.022.115.019.115.022.115.022.115.022.119.026.119.022.115.026.119.026.119.03.123.026.119.03.123.03.119.03.123.03.123.033.126.033.123.033.123.033.126.037.126.011.048,0,.045v.048l0,.045-.011.045-.019.045-.019.041-.026.041-.03.037-.033.033-.037.03-.037.022-.041.022-.045.015-.048.011-.045,0h-.048l-.045-.007-.045-.007-.045-.019-.044-.019-.037-.026-.037-.03-.034-.033-.03-.037-.022-.041-.022-.041-.015-.045-.037-.126-.033-.13-.037-.13-.033-.126-.033-.13-.033-.126-.03-.126-.03-.126-.03-.123-.03-.126-.03-.123-.026-.126-.026-.123-.026-.123-.026-.123-.022-.123-.026-.119-.022-.123-.019-.119-.022-.123-.019-.119-.022-.119-.019-.119-.015-.119-.019-.119-.015-.115-.015-.119-.015-.115-.011-.119-.015-.115-.011-.115-.011-.115-.007-.115-.011-.115-.008-.111-.007-.115-.007-.115-.007-.111,0-.115,0-.111,0-.111,0-.111,0-.111v-.553l0-.111,0-.108,0-.111,0-.108.007-.111,0-.108.007-.108.007-.108.011-.108.007-.108.011-.108.011-.108.011-.108.011-.108.011-.108.015-.1.015-.108.015-.1.015-.108.019-.108.015-.1.019-.108.019-.1.019-.1.022-.108.019-.1.022-.108.022-.1.022-.1.026-.1.022-.1.026-.108.026-.1.026-.1.026-.1.03-.1.026-.108.03-.1.03-.1.03-.1.033-.1.03-.1.033-.1.033-.1.033-.1.033-.1.033-.108.037-.1.037-.1.034-.1.037-.1.041-.1.037-.108.041-.1.041-.1.037-.1.045-.108.041-.1.041-.1.044-.108.045-.1.044-.108.045-.1.045-.108.044-.1.048-.108.045-.108.048-.1.048-.108.048-.108.048-.108.052-.108.052-.1.048-.111.052-.108.052-.108.056-.108.052-.108.052-.111.056-.108.022-.041.03-.037.03-.033.037-.033.037-.026.041-.022.045-.015.045-.015.045-.007h.048Z" transform="translate(-520.863 40.373)" fill="#fff" fill-rule="evenodd"/>
    <path id="Caminho_62" data-name="Caminho 62" d="M943.867,200.15l.037,0,.034,0,.03.007.033,0,.03.007.026.007.03.007.026.011.026.007.026.011.026.011.03.011.026.011.026.011.03.015.026.011.03.015.026.011.03.015.03.015.03.019.056.03.063.033.059.033.063.037.063.037.063.037.067.041.067.041.067.041.067.045.067.041.071.045.067.045.07.045.067.045.071.048.134.089.134.089.134.089.249.171.115.078.108.074.1.067.089.059.041.026.037.022.037.026.03.015.026.019.022.011.015.011,0,0,.007,0,.022.007.015.011.019.015.019.011.015.015.015.015.019.015.011.015.015.019.011.019.011.019.011.019.007.019.011.019.007.022,0,.019.007.022,0,.022,0,.019v.085l0,.022,0,.022,0,.022,0,.019-.007.019-.007.022-.011.019-.007.019-.011.019-.011.019-.015.019-.011.015-.015.019-.015.015-.019.011-.015.015-.019.015-.015.011-.018.011-.022.007-.019.011-.019.007-.022.007-.019,0-.022.007h-.022l-.022,0-.019,0h-.022l-.022,0h-.022l-.019,0-.022,0-.019,0-.022-.007-.019-.007-.022-.007-.019-.011-.015,0-.018-.011-.03-.019-.033-.022-.037-.019-.037-.026-.041-.026-.041-.026-.045-.03-.1-.063-.1-.067-.108-.074-.115-.082-.253-.167-.126-.085-.134-.089-.134-.089-.067-.045-.063-.045-.067-.045-.067-.041-.067-.041-.063-.045-.063-.041-.067-.037-.059-.037-.063-.037-.059-.037-.056-.033-.056-.033-.056-.03-.052-.03-.048-.026h0l-.019.015-.015.015-.019.011-.019.011-.019.011-.019.007-.022.007-.019.007-.022.007-.019,0-.022,0-.022,0-.022,0h-.041l-.022,0-.022,0-.019,0-.022,0-.022,0-.018-.007-.019-.007-.022-.011-.019-.011-.019-.011-.015-.011-.019-.011-.015-.015-.019-.015-.015-.015-.015-.015-.011-.019-.015-.015-.011-.019-.011-.019-.007-.022-.015-.022-.011-.033-.015-.03-.011-.033-.011-.033-.007-.033,0-.022,0-.019,0-.019,0-.022,0-.026v-.045l0-.03v-.026l0-.026.007-.033.007-.026.011-.033.015-.033.015-.03.018-.03.026-.03.022-.026.026-.026.026-.026.03-.019.03-.019.026-.015.03-.015.03-.007.026-.011.026,0,.022-.007.026,0h.022l.019,0h.059Z" transform="translate(-528.959 6.191)" fill="#fff" fill-rule="evenodd"/>
    <path id="Caminho_63" data-name="Caminho 63" d="M1041.028,181.13h.056l.059,0h.056l.056,0,.052,0,.056,0,.052,0,.052,0,.056.007.052.007.052,0,.052.007.052.007.048.011.052.007.052.007.048.011.052.011.048.011.048.011.048.011.048.011.048.015.048.011.048.015.048.015.045.015.048.015.045.015.048.019.045.015.048.019.045.015.045.019.044.019.045.019.045.019.048.022.045.019.045.019.041.022.048.022.041.019.048.022.041.022.045.022.045.022.045.026.045.022.045.022.044.026.045.022.045.026.089.048.089.052.089.056.089.052.093.056.163.1.16.1.152.093.152.093.286.175.275.163.13.082.126.074.123.074.122.071.119.071.115.067.056.03.056.033.056.033.052.026.056.033.052.026.052.03.052.026.052.03.052.026.048.026.052.026.048.022.048.026.048.022.048.022.048.022.048.022.045.019.048.022.044.019.048.019.045.019.044.015.045.019.045.015.048.019.041.015.045.015.044.011.045.015.045.011.045.011.041.015.045.011.045.007.045.011.045.007.041.007.045.011.045.007.044.007.045,0,.045.007.045,0,.048,0,.044.007h.045l.044,0,.048,0h.1l.048,0h.048l.048,0h.1l.052,0,.052,0,.052,0,.052,0,.052-.007.056,0,.056-.007.056-.007.056-.007.056-.007.059-.007.059-.011.059-.011.06-.007.063-.015.063-.011.063-.011.063-.015.067-.015.067-.015.067-.015.067-.015.07-.019.071-.019.07-.019.074-.019.074-.019.074-.019.074-.022.078-.022.078-.022.082-.022.078-.026.082-.026.086-.022.085-.026.085-.03.085-.026.089-.03.089-.026.093-.03.089-.033.1-.03.041-.011.045-.007.041,0,.045,0,.045,0,.041.011.041.019.041.019.033.022.037.03.03.03.026.033.026.037.019.037.019.041.011.045.007.041v.089l-.007.041-.011.041-.015.045-.019.037-.026.037-.026.033-.03.03-.033.03-.037.022-.041.022-.041.015-.093.03-.1.033-.093.03-.089.03-.093.03-.089.03-.089.026-.085.026-.089.026-.082.026-.085.026-.082.022-.082.026-.082.022-.082.022-.078.022-.078.019-.074.022-.078.019-.074.019-.074.019-.074.019-.071.015-.074.019-.071.015-.071.011-.071.015-.067.015-.067.011-.067.015-.067.011-.067.011-.067.007-.067.011-.063.007-.063.007-.063.007-.063.007-.06,0-.063.007-.063,0-.059,0-.06,0h-.059l-.063,0h-.234l-.056,0-.059,0-.056,0-.056,0-.056,0-.059-.007-.056,0-.056-.007-.052-.007-.056-.011-.056-.007-.056-.011-.056-.011-.052-.011-.056-.011-.052-.011-.056-.015-.056-.015-.052-.015-.052-.015-.056-.015-.052-.019-.052-.015-.056-.019-.052-.019-.052-.019-.056-.022-.052-.019-.052-.022-.056-.022-.052-.022-.052-.022-.052-.022-.056-.026-.052-.022-.056-.026-.052-.026-.056-.026-.056-.03-.052-.026-.056-.026-.056-.03-.056-.03-.056-.03-.056-.03-.056-.033-.06-.03-.056-.033-.059-.03-.056-.033-.06-.037-.119-.067-.123-.071-.126-.074-.123-.074-.13-.078-.134-.082-.271-.167-.29-.175-.149-.089-.152-.093-.16-.1-.16-.1-.089-.052-.089-.052-.085-.048-.082-.052-.085-.045-.041-.022-.041-.022-.041-.022-.041-.022-.037-.022-.041-.019-.041-.022-.041-.019-.037-.019-.041-.022-.037-.019-.041-.019-.037-.019-.037-.015-.041-.019-.037-.015-.041-.019-.037-.015-.037-.015-.037-.015-.041-.015-.037-.015-.037-.015-.041-.015-.037-.011-.037-.011-.041-.015-.037-.011-.041-.011-.037-.011-.041-.011-.037-.007-.041-.011-.041-.007-.037-.011-.041-.007-.041-.007-.041-.007-.041-.007-.041-.007-.045-.007-.041,0-.045-.007-.041,0-.044,0-.045,0-.045,0-.045,0-.045,0h-.048l-.045,0h-.163l-.015,0h-.015l-.015,0-.037.007-.037.007-.045.007-.048.011-.048.011-.052.015-.052.011-.052.015-.052.015-.052.015-.048.015-.052.015-.045.015-.011,0-.018.033-.026.037-.03.03-.033.03-.033.026-.041.019-.037.019-.041.015-.045.007-.045,0h-.045l-.041-.007-.026,0-.022,0-.019,0-.022-.007-.019-.007-.026-.007-.026-.011-.026-.015-.015-.007-.033-.019-.019-.015-.015-.015-.019-.015-.019-.019h0l-.019-.022-.019-.022v0l-.019-.026-.015-.026v0l-.015-.026-.011-.03v0l-.011-.033,0-.03v0l0-.037,0-.033v0l0-.033,0-.03v0l0-.03.007-.026,0,0,.007-.022.008-.019,0,0,.007-.022.011-.019.011-.019.019-.03.022-.026.019-.022.019-.019.019-.011.015-.019.03-.019.026-.019.03-.015.022-.015.026-.015.026-.011.022-.011.026-.011.026-.011.026-.011.026-.007.022-.011.03-.011.026-.007.03-.011.026-.011.059-.019.059-.019.059-.015.06-.019.059-.019.063-.015.056-.015.063-.015.056-.015.056-.011.056-.011.056-.011.048-.007.026,0,.026-.007h.022l.026,0,.022,0h.026l.026,0h.082Z" transform="translate(-589.352 18.146)" fill="#fff" fill-rule="evenodd"/>
    <path id="Caminho_64" data-name="Caminho 64" d="M1084.952,220.4a.327.327,0,0,1-.323-.319.319.319,0,0,1,.319-.327,1.917,1.917,0,0,0,1.564-1.114,3.22,3.22,0,0,0-.137-3.235c-.5-.791-1.036-1.2-1.6-1.211h-.03c-.951,0-1.738,1.114-1.746,1.114a.324.324,0,0,1-.531-.371,3.187,3.187,0,0,1,2.318-1.389,2.707,2.707,0,0,1,2.132,1.512,3.859,3.859,0,0,1,.16,3.889,2.537,2.537,0,0,1-2.121,1.456Z" transform="translate(-616.25 -1.633)" fill="#032d4a"/>
    <path id="Caminho_65" data-name="Caminho 65" d="M920.621,163.655a17.83,17.83,0,0,1-4.535-.572c-4.141-1.088-9.687-4.2-12.577-12.829-5.464-16.317,10.571-23.028,10.734-23.084l.245.6c-.643.26-15.633,6.548-10.367,22.286,2.8,8.357,8.142,11.362,12.127,12.413a18.315,18.315,0,0,0,16.343-3.822l.431.479a18.851,18.851,0,0,1-12.4,4.539m50.414-19.392-.461-.449c2.574-2.674,3.254-6.077,1.82-9.107a8.665,8.665,0,0,0-8.513-4.829c-7.358.579-15.448,8.431-15.529,8.513l-.453-.464c.338-.331,8.339-8.1,15.93-8.7a9.308,9.308,0,0,1,9.152,5.2c1.553,3.287.825,6.961-1.939,9.835" transform="translate(-503.083 52.662)" fill="#014e6a"/>
    <path id="Caminho_66" data-name="Caminho 66" d="M1217.269,545.33a.4.4,0,0,1-.171-.743l35.442-17.134a.4.4,0,1,1,.345.717L1217.443,545.3a.417.417,0,0,1-.175.041" transform="translate(-700.783 -198.92)" fill="#032d4a"/>
    <path id="Caminho_67" data-name="Caminho 67" d="M1174.945,592.931a.4.4,0,0,1-.186-.754l2.192-1.059a.4.4,0,1,1,.345.713l-2.191,1.062a.406.406,0,0,1-.171.037" transform="translate(-674.155 -238.929)" fill="#032d4a"/>
    <path id="Caminho_68" data-name="Caminho 68" d="M768.12,680.007a.459.459,0,0,1-.152-.03.4.4,0,0,1-.215-.52c.115-.275.29-.695,137.056-66.883a.4.4,0,0,1,.531.186.394.394,0,0,1-.186.531c-86.68,41.945-135.21,65.586-136.763,66.608a.371.371,0,0,1-.271.108" transform="translate(-418.445 -252.427)" fill="#032d4a"/>
    <path id="Caminho_69" data-name="Caminho 69" d="M1313.394,515.629a3.785,3.785,0,1,1-3.9,3.77,3.841,3.841,0,0,1,3.9-3.77" transform="translate(-758.985 -191.513)" fill="#032d4a" fill-rule="evenodd"/>
    <path id="Caminho_46" data-name="Caminho 46" d="M1415.6,1005.233l9.572,5.011,10.9-.438,4.32-12.6-7.365-10.987-13.68.3Z" transform="translate(-825.809 -487.912)" fill="#fe8fb0" fill-rule="evenodd"/>
    <path id="Caminho_51" data-name="Caminho 51" d="M1431.195,1000.079s6.173,11.094,6.314,19.21-.672,25.42,7.9,25.866,13.527-8.112,14.8-14.894-5.88-18.014-3.967-24.514,7.076-21.509,5.724-25.862-4.271-7.759-10.831-6.767-15.2-1.857-14.211,2.373,4.346,6.537,5.542,11.908,2.782,9.353-2.7,9.386-9.382.331-8.576,3.3" transform="translate(-835.417 -478.969)" fill="#ffc75f" fill-rule="evenodd"/>
    <rect id="Retângulo_13" data-name="Retângulo 13" width="26.416" height="5.423" transform="translate(600.31 428.154) rotate(-13.48)" fill="#ffc75f"/>
    <path id="Caminho_53" data-name="Caminho 53" d="M1466.8,1015.036s4.94,1.983,6.686-3.343-5.7-16.083-5.7-16.083,10.994,10.3,9.408,16.814c-1.252,5.155-8.621,3.666-10.4,2.6" transform="translate(-857.866 -493.217)" fill="#ffe9eb" fill-rule="evenodd"/>
    <path id="Caminho_57" data-name="Caminho 57" d="M1478.222,1128.052a.4.4,0,0,1-.03-.795c.045,0,4.457-.472,5.308-9.468a.4.4,0,1,1,.8.063c-.925,9.724-5.832,10.173-6.04,10.188h-.03" transform="translate(-864.787 -569.781)" fill="#032d4a"/>
    <path id="Caminho_58" data-name="Caminho 58" d="M1490.365,1095.845a.4.4,0,0,1-.4-.371,57.8,57.8,0,0,0-.412-5.776.4.4,0,0,1,.791-.093c.245,2.095.371,4.063.416,5.854a.4.4,0,0,1-.371.4Z" transform="translate(-872.168 -552.078)" fill="#032d4a"/>
    <path id="Caminho_7" data-name="Caminho 7" d="M1495.483,1324.768l-.223-.5a354.15,354.15,0,0,0,72.655-45.726l.331.427a354.335,354.335,0,0,1-72.762,45.8" transform="translate(-875.755 -671.059)" fill="#032d4a"/>
    <path id="Caminho_1" data-name="Caminho 1" d="M1522.07,1130.166c11.726-6.712,23-9.1,25.168-5.315s-5.6,12.3-17.323,19.017-23,9.1-25.168,5.315,5.6-12.3,17.323-19.017" transform="translate(-881.491 -573.325)" fill="#ffe9eb" fill-rule="evenodd"/>
    <rect id="Retângulo_12" data-name="Retângulo 12" width="26.416" height="5.423" transform="translate(631.023 420.788) rotate(-13.48)" fill="#845ec2"/>
    <path id="Caminho_8" data-name="Caminho 8" d="M1770.593,1203.924l-.453-.46q1.56-1.527,3.083-3.053l.457.457q-1.526,1.534-3.086,3.057" transform="translate(-1048.538 -621.949)" fill="#032d4a"/>
    <path id="Caminho_9" data-name="Caminho 9" d="M1835.468,1087.44l-.5-.416a300.191,300.191,0,0,0,22.323-30.423l.546.349a300.885,300.885,0,0,1-22.371,30.49" transform="translate(-1089.288 -531.553)" fill="#032d4a"/>
  </g>
</svg>
